<?xml version="1.0" encoding="iso-8859-1"?>
<!-- Generator: Adobe Illustrator 19.0.0, SVG Export Plug-In . SVG Version: 6.00 Build 0)  -->
<svg version="1.1" id="Capa_1" xmlns="http://www.w3.org/2000/svg" xmlns:xlink="http://www.w3.org/1999/xlink" x="0px" y="0px"
	 viewBox="0 0 512 512" style="enable-background:new 0 0 512 512;" xml:space="preserve">
<g>
	<path style="fill:#FFCDAC;" d="M483,382.929h-24c-10.493,0-19-8.507-19-19v-24.333c0-10.493,8.507-19,19-19h24
		c10.493,0,19,8.507,19,19v24.333C502,374.422,493.493,382.929,483,382.929z"/>
	<path style="fill:#FFCDAC;" d="M53,382.929H29c-10.493,0-19-8.507-19-19v-24.333c0-10.493,8.507-19,19-19h24
		c10.493,0,19,8.507,19,19v24.333C72,374.422,63.493,382.929,53,382.929z"/>
	<path style="fill:#FFCDAC;" d="M256,150.699L256,150.699c-26.51,0-48-21.49-48-48V73.071c0-26.51,21.49-48,48-48l0,0
		c26.51,0,48,21.49,48,48V102.7C304,129.209,282.51,150.699,256,150.699z"/>
</g>
<path style="fill:#F0F0FA;" d="M368,382.929h72v-63.5l0,0c-36.323-19.993-60.521-56.539-64.744-97.785l-1.841-17.982
	c-2.508-24.487-23.133-43.108-47.748-43.108h-8H186.333l0,0c-24.615,0-45.24,18.621-47.748,43.108l-1.841,17.982
	C132.52,262.89,108.323,299.436,72,319.429l0,0v63.5h72H368z"/>
<polygon style="fill:#BEBEBE;" points="253.265,214.114 225.389,150.699 284.433,150.699 "/>
<rect x="176.61" y="340.5" style="fill:#878791;" width="158.78" height="42.43"/>
<path style="fill:#D7D7E6;" d="M279.027,382.929h144.445c28.719,0,52,23.281,52,52l0,0c0,28.719-23.281,52-52,52H279.027V382.929z"
	/>
<path style="fill:#BEBEBE;" d="M343.943,458.929h-64v-48h64c13.255,0,24,10.745,24,24l0,0
	C367.943,448.184,357.198,458.929,343.943,458.929z"/>
<path style="fill:#D7D7E6;" d="M279.027,486.929H88.528c-28.719,0-52-23.281-52-52l0,0c0-28.719,23.281-52,52-52h190.499
	L279.027,486.929L279.027,486.929z"/>
<g>
	<polygon style="fill:#878791;" points="184.333,160.554 283.587,342.909 323.367,342.909 224.113,160.554 	"/>
	<polygon style="fill:#878791;" points="323.652,160.554 274.979,254.008 253.265,214.114 283.872,160.554 	"/>
</g>
<path d="M483,310.595h-24c-4.051,0-7.91,0.838-11.416,2.345c-0.77-0.901-1.691-1.682-2.762-2.272
	c-33.442-18.407-55.729-52.068-59.618-90.043l-1.842-17.982c-3.04-29.696-27.844-52.089-57.695-52.089h-2.015h-5.985h-28.943
	C303.973,140.093,314,122.548,314,102.699V73.071c0-31.981-26.019-58-58-58s-58,26.019-58,58V102.7
	c0,19.849,10.027,37.394,25.276,47.854h-38.943c-0.485,0-0.963,0.043-1.435,0.111c-28.298,1.643-51.338,23.43-54.26,51.978
	l-1.842,17.983c-3.889,37.975-26.176,71.636-59.618,90.042c-1.072,0.59-1.992,1.372-2.762,2.272
	c-3.506-1.507-7.364-2.345-11.416-2.345H29c-15.99,0-29,13.009-29,29v24.333c0,15.991,13.01,29,29,29h13.973
	c-10.199,11.054-16.445,25.809-16.445,42c0,34.187,27.813,62,62,62h37.805c5.522,0,10-4.477,10-10s-4.478-10-10-10H88.528
	c-23.159,0-42-18.841-42-42s18.841-42,42-42h180.499v84h-60.073c-5.522,0-10,4.477-10,10s4.478,10,10,10h214.518
	c34.187,0,62-27.813,62-62c0-16.191-6.245-30.946-16.445-42H483c15.99,0,29-13.009,29-29v-24.333
	C512,323.605,498.99,310.595,483,310.595z M363.466,204.681l1.842,17.982c4.354,42.514,28.387,80.417,64.692,102.527v14.406v24.333
	v9h-6.528h-78.079v-29.498l7.554-72.465c0.572-5.493-3.416-10.41-8.909-10.983c-5.498-0.576-10.41,3.417-10.983,8.91l-6.202,59.501
	l-40.543-74.489l43.303-83.144C347.37,172.58,361.61,186.55,363.466,204.681z M307.169,170.554l-32.384,62.179l-10.069-18.5
	l24.959-43.678L307.169,170.554L307.169,170.554z M218,73.071c0-20.953,17.047-38,38-38s38,17.047,38,38V102.7
	c0,20.953-17.047,38-38,38s-38-17.047-38-38V73.071z M256,160.699c6.243,0,12.253-1.003,17.892-2.837l-20.415,35.724l-20.5-37.664
	C240.04,158.989,247.823,160.699,256,160.699z M20,363.929v-24.333c0-4.962,4.037-9,9-9h24c4.963,0,9,4.038,9,9v24.333
	c0,4.962-4.037,9-9,9H29C24.037,372.929,20,368.891,20,363.929z M82,372.929v-9v-24.333V325.19
	c36.306-22.11,60.339-60.013,64.692-102.526l1.842-17.983c1.729-16.891,14.207-30.169,30.264-33.378l24.457,44.932
	c2.64,4.852,8.716,6.643,13.563,4.002c4.852-2.64,6.644-8.713,4.003-13.564l-19.66-36.12h17.01l88.368,162.355h-17.01
	l-30.087-55.277c-2.639-4.851-8.715-6.642-13.563-4.002c-4.852,2.64-6.644,8.713-4.003,13.564l24.883,45.716h-81.14l-6.673-64.017
	c-0.573-5.493-5.472-9.481-10.983-8.91c-5.493,0.573-9.481,5.49-8.909,10.983l7.554,72.465v29.498H82V372.929z M186.607,372.929
	v-20.02h138.785v20.02H186.607z M423.472,476.929H289.027v-8h54.916c18.748,0,34-15.252,34-34s-15.252-34-34-34h-54.916v-8h134.444
	c23.159,0,42,18.841,42,42S446.631,476.929,423.472,476.929z M289.943,448.929v-28h54c7.72,0,14,6.28,14,14s-6.28,14-14,14H289.943z
	 M492,363.929c0,4.962-4.037,9-9,9h-24c-4.963,0-9-4.038-9-9v-24.333c0-4.962,4.037-9,9-9h24c4.963,0,9,4.038,9,9V363.929z"/>
<path d="M222.616,251.808c1.815,3.329,5.247,5.215,8.789,5.215c1.617,0,3.258-0.394,4.778-1.222
	c4.849-2.644,6.637-8.717,3.993-13.566l-0.18-0.33c-2.645-4.85-8.717-6.636-13.567-3.993c-4.849,2.644-6.637,8.717-3.993,13.566
	L222.616,251.808z"/>
<path d="M169,476.929c-2.641,0-5.21,1.07-7.07,2.93s-2.93,4.44-2.93,7.07s1.069,5.21,2.93,7.07c1.86,1.86,4.44,2.93,7.07,2.93
	s5.21-1.07,7.069-2.93c1.86-1.86,2.931-4.44,2.931-7.07s-1.07-5.21-2.931-7.07C174.21,478,171.63,476.929,169,476.929z"/>
<g>
</g>
<g>
</g>
<g>
</g>
<g>
</g>
<g>
</g>
<g>
</g>
<g>
</g>
<g>
</g>
<g>
</g>
<g>
</g>
<g>
</g>
<g>
</g>
<g>
</g>
<g>
</g>
<g>
</g>
</svg>
