<?xml version="1.0" encoding="iso-8859-1"?>
<!-- Generator: Adobe Illustrator 19.0.0, SVG Export Plug-In . SVG Version: 6.00 Build 0)  -->
<svg version="1.1" id="Capa_1" xmlns="http://www.w3.org/2000/svg" xmlns:xlink="http://www.w3.org/1999/xlink" x="0px" y="0px"
	 viewBox="0 0 512.002 512.002" style="enable-background:new 0 0 512.002 512.002;" xml:space="preserve">
<g>
	<path style="fill:#BEBEBE;" d="M140.285,457.802H62.278c-8.286,0-15.004-6.718-15.004-15.004v-25.006h53
		C122.372,417.792,140.285,435.705,140.285,457.802L140.285,457.802z"/>
	<path style="fill:#BEBEBE;" d="M318.918,429.531c-14.929,4.406-18.57,23.217-14.164,38.145l0,0l52.702-15.554
		c5.598-1.652,8.797-7.53,7.145-13.128l-7.778-26.356"/>
	<path style="fill:#BEBEBE;" d="M202.812,84.486l-22.808-22.194c-7.114-6.922-18.492-6.767-25.413,0.347l0,0
		c-6.922,7.114-6.767,18.492,0.347,25.413l18.821,18.315"/>
</g>
<g>
	<polygon style="fill:#F0F0FA;" points="48.029,257.605 63.533,205.612 128.374,205.612 143.878,257.605 	"/>
	<path style="fill:#F0F0FA;" d="M128.374,163.268h37.235c7.741,0,15.157-3.113,20.578-8.638l52.497-53.502l-22.256-21.672
		l-50.721,34.801H84.021l-5.092-0.011H65.346c-10.64,0-20.462,5.705-25.734,14.948l-25.039,43.901
		c-2.995,5.251-4.57,11.192-4.57,17.236l0,0c0,12.8,7.03,24.567,18.302,30.634l26.413,14.217l8.817-29.567h64.841v-42.345H128.374z"
		/>
	<path style="fill:#F0F0FA;" d="M483.351,240.6l-71.917-97.984c-3.675-5.006-9.513-7.964-15.724-7.964h-21.322h-9.142
		c-10.195,0-18.804,7.569-20.11,17.68l-8.041,62.272l48.231,51.204l22.178-50.673l56.11,44.99L483.351,240.6z"/>
</g>
<g>
	<polygon style="fill:#D7D7E6;" points="118.029,257.605 61.515,257.605 35.334,417.665 117.696,417.665 	"/>
	<path style="fill:#D7D7E6;" d="M385.327,265.808L223.77,116.329l-20.957,21.358l115.165,131.942l-31.962,47.249
		c-8.666,12.811-9.677,29.322-2.64,43.096l35.544,69.559l38.402-13.2l-18.62-61.334c-2.566-8.452-1.208-17.608,3.699-24.952
		L385.327,265.808z"/>
</g>
<g>
	<path style="fill:#FFCDAC;" d="M266.087,88.572l-6.632,6.632c-7.422,7.422-19.455,7.422-26.877,0l-11.803-11.803
		c-7.422-7.422-7.422-19.455,0-26.877l6.632-6.632c7.422-7.422,19.455-7.422,26.877,0l11.803,11.803
		C273.509,69.117,273.509,81.15,266.087,88.572z"/>
	<path style="fill:#FFCDAC;" d="M470.117,277.787L470.117,277.787c-6.673-6.673-6.673-17.49,0-24.162l2.715-2.715
		c6.673-6.673,17.49-6.673,24.162,0l0,0c6.673,6.673,6.673,17.49,0,24.162l-2.715,2.715
		C487.607,284.458,476.789,284.458,470.117,277.787z"/>
	<path style="fill:#FFCDAC;" d="M80.226,114.245L80.226,114.245c-17.698,0-32.046-14.348-32.046-32.046v-5.826
		c0-17.698,14.348-32.046,32.046-32.046l0,0c17.698,0,32.046,14.348,32.046,32.046v5.826
		C112.272,99.898,97.924,114.245,80.226,114.245z"/>
	<path style="fill:#FFCDAC;" d="M374.389,134.651L374.389,134.651c-17.231,0-31.201-13.968-31.201-31.201v-5.672
		c0-17.231,13.968-31.201,31.201-31.201l0,0c17.231,0,31.201,13.968,31.201,31.201v5.672
		C405.59,120.683,391.62,134.651,374.389,134.651z"/>
</g>
<path d="M504.066,243.836c-3.225-3.225-7.12-5.533-11.37-6.802c-0.314-0.822-0.739-1.614-1.281-2.354l-71.916-97.984
	c-3.014-4.105-7.026-7.302-11.561-9.37c4.811-6.742,7.654-14.98,7.654-23.875v-5.673c0-22.72-18.484-41.202-41.203-41.202
	s-41.203,18.484-41.203,41.202v5.673c0,11.263,4.547,21.481,11.896,28.926c-5.264,4.707-8.905,11.237-9.865,18.673l-6.318,48.921
	l-90.778-83.991l5.244-5.345c0.881,0.08,1.765,0.123,2.65,0.123c7.428,0,14.857-2.828,20.511-8.482l6.632-6.632v-0.001
	c11.309-11.311,11.309-29.712,0-41.022l-11.803-11.803c-11.311-11.31-29.712-11.31-41.022,0l-6.631,6.632
	c-5.479,5.479-8.497,12.763-8.497,20.512c0,1.027,0.057,2.046,0.161,3.053l-18.388-17.891c-5.355-5.212-12.384-8.026-19.891-7.924
	c-7.471,0.102-14.456,3.107-19.667,8.463c-5.21,5.355-8.024,12.418-7.922,19.89c0.102,7.472,3.107,14.456,8.462,19.667l9.282,9.032
	h-41.239c3.97-6.417,6.268-13.97,6.268-22.054v-5.826c0-23.186-18.863-42.048-42.048-42.048s-42.045,18.865-42.045,42.05v5.826
	c0,9.959,3.487,19.115,9.295,26.327c-6.828,3.456-12.641,8.859-16.549,15.713L5.884,168.14C2.035,174.887,0,182.562,0,190.33
	c0,16.505,9.028,31.618,23.563,39.442l19.24,10.356l-4.359,14.619c-0.902,3.027-0.322,6.303,1.565,8.835
	c1.887,2.533,4.861,4.025,8.02,4.025h1.714L25.462,416.05c-0.474,2.897,0.348,5.855,2.249,8.092c1.9,2.236,4.688,3.525,7.623,3.525
	h1.938v15.131c0,1.712,0.174,3.385,0.503,5.001H25.506c-5.524,0-10.002,4.479-10.002,10.003s4.478,10.002,10.002,10.002h161.04
	c5.524,0,10.002-4.479,10.002-10.002s-4.478-10.003-10.002-10.003h-37.265c-2.7-13.245-10.655-24.595-21.579-31.789l0.309-148.405
	h15.867c3.159,0,6.133-1.492,8.02-4.025c1.887-2.533,2.468-5.808,1.565-8.835l-15.087-50.593V173.27h27.233
	c10.36,0,20.463-4.241,27.718-11.635l9.057-9.23l28.765,32.956c3.632,4.161,9.951,4.59,14.112,0.958
	c4.162-3.633,4.591-9.951,0.958-14.113l-29.783-34.121l7.67-7.816l148.16,137.083l-38.184,57.136
	c-6.598,9.874-8.403,22.053-4.953,33.414l15.817,52.105l-21.071,7.244l-31.594-61.828c-5.378-10.527-4.605-23.15,2.018-32.94
	l31.963-47.249c2.544-3.761,2.237-8.762-0.749-12.183l-30.068-34.448c-3.633-4.161-9.951-4.59-14.113-0.958
	c-4.162,3.633-4.591,9.951-0.958,14.114l25.003,28.645l-27.647,40.869c-10.708,15.829-11.958,36.234-3.262,53.251l31.138,60.937
	c-4.822,3.946-8.453,9.454-10.567,16.213c-2.742,8.771-2.697,19.281,0.123,28.834c0.75,2.545,2.482,4.687,4.812,5.954
	c1.48,0.806,3.126,1.217,4.782,1.217c0.95,0,1.903-0.136,2.831-0.409l52.703-15.554c10.879-3.212,17.116-14.675,13.905-25.552
	l-7.778-26.357c-0.344-1.165-0.889-2.213-1.574-3.133l-16.57-54.585c-1.702-5.605-0.811-11.616,2.445-16.488l42.927-64.237
	c0.201-0.3,0.377-0.61,0.542-0.924c0.012-0.023,0.028-0.042,0.04-0.065l19.301-37.592l41.595,33.352
	c0.11,7.074,2.909,13.709,7.923,18.724c0,0,0,0,0.001,0c5.28,5.28,12.217,7.92,19.153,7.92c6.937,0,13.873-2.641,19.154-7.92
	l2.715-2.715c5.116-5.116,7.934-11.919,7.934-19.154C512,255.754,509.182,248.953,504.066,243.836z M227.85,63.598l6.632-6.632
	c1.754-1.755,4.06-2.633,6.366-2.633c2.305,0,4.61,0.877,6.366,2.633l11.802,11.803c3.51,3.51,3.51,9.221,0,12.732l-6.631,6.631
	c-3.51,3.51-9.221,3.511-12.731,0L227.85,76.329c-1.7-1.7-2.637-3.961-2.637-6.365C225.212,67.559,226.149,65.298,227.85,63.598z
	 M161.761,69.615c1.484-1.525,3.475-2.382,5.602-2.411c2.172-0.045,4.141,0.772,5.666,2.258l16.659,16.21l-13.402,9.196
	l-14.372-13.984c-1.525-1.483-2.382-3.474-2.411-5.602C159.476,73.153,160.277,71.141,161.761,69.615z M58.182,76.373
	c0-12.154,9.888-22.043,22.043-22.043s22.043,9.889,22.043,22.043v5.826c0,12.155-9.888,22.043-22.043,22.043
	s-22.043-9.888-22.043-22.043V76.373z M62.278,447.8c-2.758,0-5.001-2.244-5.001-5.001v-15.004h42.998
	c13.041,0,24.165,8.361,28.294,20.005H62.278z M107.715,407.663h-60.61l22.91-140.056h37.991L107.715,407.663z M118.029,247.601
	H61.515h-0.066l2.835-9.506c0.01-0.032,0.019-0.065,0.029-0.097l6.675-22.383h49.93l9.538,31.987h-12.427V247.601z M165.608,153.266
	h-27.233v-2.667c0-5.523-4.478-10.002-10.002-10.002c-5.524,0-10.002,4.479-10.002,10.002v45.011H67.677l-10.333-10.333
	c-3.906-3.905-10.24-3.905-14.146,0c-3.906,3.906-3.907,10.24,0,14.147l9.045,9.045l-3.603,12.082l-15.596-8.395
	c-8.044-4.33-13.04-12.693-13.04-21.826c0-4.299,1.125-8.546,3.256-12.281L48.3,134.148c3.483-6.107,10.014-9.9,17.045-9.9
	l100.362,0.011c2.021,0,3.993-0.611,5.658-1.754l44.106-30.261l9.043,9.043l-45.467,46.338
	C175.53,151.209,170.631,153.266,165.608,153.266z M354.626,442.531l-41.604,12.278c0.061-2.544,0.43-4.989,1.111-7.167
	c1.432-4.582,3.995-7.448,7.616-8.517c0.055-0.016,0.106-0.039,0.16-0.056c0.087-0.027,0.174-0.048,0.26-0.078l29.054-9.988
	l3.784,12.824C355.097,442.127,354.924,442.442,354.626,442.531z M353.191,97.778c0-11.689,9.509-21.197,21.198-21.197
	s21.198,9.509,21.198,21.197v5.673c0,11.689-9.509,21.197-21.198,21.197s-21.198-9.509-21.198-21.197V97.778z M382.447,249.517
	l-35.563-32.904c0.049-0.24,0.1-0.48,0.132-0.728l8.041-62.272c0.66-5.106,5.04-8.958,10.19-8.958h30.465
	c3.014,0,5.877,1.45,7.661,3.88l66.809,91.026l-2.954,2.923c-0.502,0.434-0.994,0.881-1.468,1.354l-2.714,2.715
	c-0.055,0.055-0.105,0.113-0.16,0.168l-46.352-37.166c-0.028-0.022-0.055-0.044-0.083-0.067l-29.532-23.681
	c-4.311-3.456-10.606-2.763-14.061,1.546c-3.456,4.31-2.764,10.606,1.546,14.061l23.194,18.598L382.447,249.517z M489.921,267.999
	l-2.714,2.715c-2.761,2.761-7.255,2.76-10.016,0.001v-0.001c-1.337-1.337-2.075-3.116-2.075-5.008c0-1.631,0.55-3.177,1.558-4.429
	l3.974-3.931c1.223-0.928,2.704-1.437,4.265-1.437c1.892,0,3.67,0.736,5.009,2.075c1.337,1.337,2.074,3.116,2.074,5.008
	C491.996,264.884,491.259,266.662,489.921,267.999z"/>
<path d="M273.798,207.559c0-2.631-1.06-5.211-2.931-7.071c-1.86-1.86-4.431-2.932-7.072-2.932c-2.631,0-5.211,1.07-7.072,2.932
	c-1.86,1.859-2.931,4.431-2.931,7.071c0,2.632,1.07,5.212,2.931,7.072c1.86,1.86,4.441,2.931,7.072,2.931
	c2.641,0,5.211-1.069,7.072-2.931C272.738,212.772,273.798,210.191,273.798,207.559z"/>
<path d="M222.385,447.8c-2.631,0-5.201,1.069-7.072,2.931c-1.86,1.86-2.931,4.441-2.931,7.072c0,2.631,1.07,5.211,2.931,7.071
	c1.87,1.86,4.441,2.932,7.072,2.932c2.631,0,5.211-1.07,7.072-2.932c1.87-1.859,2.931-4.44,2.931-7.071
	c0-2.631-1.06-5.211-2.931-7.072C227.596,448.869,225.026,447.8,222.385,447.8z"/>
<g>
</g>
<g>
</g>
<g>
</g>
<g>
</g>
<g>
</g>
<g>
</g>
<g>
</g>
<g>
</g>
<g>
</g>
<g>
</g>
<g>
</g>
<g>
</g>
<g>
</g>
<g>
</g>
<g>
</g>
</svg>
